<svg width="469" height="580" viewBox="0 0 469 580" fill="none" xmlns="http://www.w3.org/2000/svg">
<g clip-path="url(#clip0_292_1816)">
<path d="M436.768 441.596H31.832C24.3196 441.587 18.2317 435.497 18.223 427.983V98.1567C18.2317 90.6419 24.3196 84.5521 31.832 84.5435H436.768C444.28 84.5522 450.368 90.6419 450.377 98.1567V427.983C450.368 435.497 444.28 441.587 436.768 441.596Z" fill="#E6E6E6"/>
<path d="M397.423 432.414H41.0137C33.5012 432.405 27.4134 426.315 27.4047 418.8V107.346C27.4134 99.8316 33.5013 93.7418 41.0137 93.7332H427.588C435.101 93.7419 441.188 99.8316 441.197 107.346V388.626C441.17 412.798 421.588 432.386 397.423 432.414Z" fill="white"/>
<path d="M299.482 164.158H136.729C134.791 164.158 133.219 162.586 133.219 160.647C133.219 158.708 134.791 157.136 136.729 157.136H299.482C301.421 157.136 302.992 158.708 302.992 160.647C302.992 162.586 301.421 164.158 299.482 164.158Z" fill="#B09F9F"/>
<path d="M381.871 201.617H136.729C134.791 201.617 133.219 200.045 133.219 198.106C133.219 196.167 134.791 194.595 136.729 194.595H381.871C383.809 194.595 385.381 196.167 385.381 198.106C385.381 200.045 383.809 201.617 381.871 201.617Z" fill="#E6E6E6"/>
<path d="M381.871 239.076H136.729C134.791 239.076 133.219 237.504 133.219 235.565C133.219 233.626 134.791 232.054 136.729 232.054H381.871C383.809 232.054 385.381 233.626 385.381 235.565C385.381 237.504 383.809 239.076 381.871 239.076Z" fill="#E6E6E6"/>
<path d="M381.871 276.534H136.729C134.791 276.534 133.219 274.963 133.219 273.024C133.219 271.085 134.791 269.513 136.729 269.513H381.871C383.809 269.513 385.381 271.085 385.381 273.024C385.381 274.963 383.809 276.534 381.871 276.534Z" fill="#E6E6E6"/>
<path d="M381.871 313.993H136.729C134.791 313.993 133.219 312.421 133.219 310.482C133.219 308.543 134.791 306.971 136.729 306.971H381.871C383.809 306.971 385.381 308.543 385.381 310.482C385.381 312.421 383.809 313.993 381.871 313.993Z" fill="#E6E6E6"/>
<path d="M370.847 373.686C361.032 373.686 353.075 365.727 353.075 355.908C353.075 346.09 361.032 338.131 370.847 338.131C380.662 338.131 388.619 346.09 388.619 355.908C388.619 365.727 380.662 373.686 370.847 373.686Z" fill="#B09F9F"/>
<path d="M380.845 355.064L375.807 347.708C375.342 347.025 374.413 346.849 373.731 347.314C373.049 347.779 372.873 348.709 373.337 349.391L373.342 349.397L376.6 354.155H363.835C362.867 354.152 362.079 354.935 362.076 355.903C362.074 356.872 362.856 357.659 363.824 357.662H376.76L373.342 362.654C372.878 363.337 373.056 364.266 373.739 364.73C374.417 365.191 375.34 365.018 375.807 364.343L380.845 356.987C381.179 356.389 381.179 355.661 380.845 355.064Z" fill="white"/>
<path d="M466.947 35.9039H1.65438C0.656643 35.8825 -0.134932 35.0561 -0.113592 34.0581C-0.0929021 33.0901 0.686673 32.3102 1.65438 32.2896H466.947C467.945 32.3109 468.737 33.1373 468.715 34.1353C468.695 35.1034 467.915 35.8832 466.947 35.9039Z" fill="#CACACA"/>
<path d="M59.8833 392.158C62.5737 389.907 62.9301 385.9 60.6792 383.208C60.4392 382.921 60.1743 382.656 59.8876 382.416L56.0344 349.111L43.8002 351.944L50.5992 383.515C48.5175 386.363 49.138 390.359 51.985 392.442C54.3671 394.184 57.6323 394.067 59.8833 392.158Z" fill="#FFB6B6"/>
<path d="M58.6192 354.541L44.4553 363.38C44.4553 363.38 43.5931 368.561 42.6192 355.542C42.5175 354.183 43.4654 351.815 43.3612 350.42C43.2436 348.847 38.7378 348.131 38.6192 346.539C38.5347 345.406 39.8373 344.397 39.7532 343.267C39.6258 341.555 39.4992 339.852 39.3749 338.177C39.2709 336.776 37.7192 335.888 37.6192 334.535C37.5183 333.171 38.8692 331.344 38.7739 330.051C38.06 320.36 40.5289 295.977 40.5289 295.481C40.3381 294.236 39.8185 293.065 39.0238 292.088L39.7798 289.827L39.2799 285.583C38.6229 280.006 39.7949 274.367 42.6192 269.515L46.2163 267.159L62.814 295.085C55.8295 319.25 51.2702 328.742 58.6192 354.541Z" fill="#B09F9F"/>
<path d="M47.567 562.761H56.135L60.213 529.702H47.567V562.761Z" fill="#FFB6B6"/>
<path d="M44.7711 556.891L58.4596 556.073V561.94L71.4737 570.931C73.1387 572.081 73.5565 574.363 72.4069 576.029C71.723 577.019 70.5959 577.611 69.3921 577.611H53.0953L50.2863 571.808L49.1896 577.611H43.045L44.7711 556.891Z" fill="#2F2E41"/>
<path d="M95.696 562.761H104.264L108.341 529.702H95.696V562.761Z" fill="#FFB6B6"/>
<path d="M92.8993 556.891L106.588 556.073V561.94L119.602 570.931C121.267 572.081 121.685 574.363 120.535 576.029C119.851 577.019 118.724 577.611 117.52 577.611H101.224L98.4146 571.808L97.3179 577.611H91.1733L92.8993 556.891Z" fill="#2F2E41"/>
<path d="M43.9305 534.253H43.9638L45.6116 455.523C43.4458 451.344 43.515 446.358 45.796 442.241L46.0319 441.814L45.4202 438.977C44.6346 435.333 44.9951 431.535 46.4523 428.104L47.9896 377.963C42.4976 342.36 68.6707 319.14 68.6707 319.14H107.878L116.296 348.07C121.86 402.301 120.851 480.125 112.02 531.325L112.261 531.447C113.21 531.976 113.575 533.157 113.092 534.13C112.684 535.312 111.65 536.028 110.783 535.729L90.0773 535.009C89.1288 534.48 88.7631 533.298 89.2467 532.326C89.6547 531.143 90.6882 530.427 91.555 530.727L92.9629 531.439L91.5102 528.481C89.7285 524.852 90.073 520.54 92.4082 517.241L92.1537 510.729C89.9523 508.15 89.2206 504.625 90.2136 501.383L91.6104 496.823L89.9604 454.593L90.2936 445.119L89.6072 434.37L86.4333 386.025L74.4198 445.476L62.1484 534.851C62.749 535.393 63.0126 536.216 62.8387 537.006C62.5781 538.066 61.6177 538.804 60.5265 538.783H43.8706C42.6175 538.782 41.6026 537.765 41.6038 536.511C41.604 536.308 41.6315 536.105 41.6855 535.909C41.9745 534.914 42.8942 534.235 43.9305 534.253Z" fill="#2F2E41"/>
<path d="M139.21 379.217C141.424 376.495 141.012 372.493 138.291 370.278C138.001 370.042 137.691 369.832 137.364 369.651L127.254 337.685L115.781 342.792L128.453 372.495C126.95 375.687 128.319 379.493 131.509 380.996C134.179 382.254 137.363 381.518 139.21 379.217Z" fill="#FFB6B6"/>
<path d="M97.6116 277.594C97.6116 277.594 109.141 318.408 108.619 322.531C107.542 331.034 54.5595 357.169 50.6192 345.539L51.1131 341.716C49.1225 337.733 61.2673 321.928 61.8569 319.861C62.606 317.217 59.2143 308.538 59.2143 308.538C59.2143 308.538 61.5587 300.614 61.1841 295.709C60.8026 290.804 59.6721 291.56 55.5244 288.535C51.3767 285.517 44.5864 271.557 44.5864 271.557C44.5864 271.557 47.6036 257.973 47.6036 255.329C47.6036 252.686 59.9981 248.183 61.5032 246.677C62.1584 245.803 62.71 244.855 63.147 243.854C63.4522 243.243 63.258 241.828 63.584 241.127C63.7921 240.669 64.5203 240.954 64.7354 240.482C64.9435 240.024 64.7631 239.497 64.9712 239.046C65.2417 238.449 65.8936 237.929 66.1503 237.367C67.3294 234.786 68.3351 232.683 68.6472 232.683C69.3963 232.683 93.5472 236.083 93.5472 236.083C94.8617 238.117 96.3767 240.013 98.0694 241.745C100.712 244.381 113.079 250.799 113.079 250.799L97.6116 277.594Z" fill="#B09F9F"/>
<path d="M130.223 346.258C128.336 348.146 119.001 356.81 118.619 354.541C118.245 352.28 118.041 352.009 116.529 351.26C115.017 350.504 115.017 350.129 114.642 347.486C114.268 344.842 110.869 342.199 111.25 341.068C111.625 339.937 111.275 341.376 111.275 340.238C111.275 339.107 110.145 334.958 108.633 334.202C107.128 333.445 104.86 332.696 105.997 330.809C107.128 328.922 95.3503 272.307 95.3503 272.307L105.914 251.555L113.079 250.799C113.079 250.799 115.256 252.045 115.938 263.279C115.972 263.848 116.593 264.892 116.619 265.514C116.641 266.03 116.07 266.115 116.086 266.669C116.089 266.788 116.093 266.907 116.096 267.027C116.11 267.578 117.597 267.983 117.619 268.514C117.659 269.464 118.243 275.521 118.306 276.412C118.377 277.415 118.461 278.382 118.557 279.312C119.6 289.436 119.973 290.291 120.619 293.522C121.619 298.524 125.764 327.735 125.764 327.735C125.764 327.735 128.782 328.485 128.782 331.128C128.782 333.771 132.109 339.084 130.604 342.102C129.092 345.127 132.109 344.371 130.223 346.258Z" fill="#B09F9F"/>
<path d="M78.8745 231.908C88.7569 231.908 96.7681 223.895 96.7681 214.009C96.7681 204.124 88.7569 196.11 78.8745 196.11C68.9922 196.11 60.981 204.124 60.981 214.009C60.981 223.895 68.9922 231.908 78.8745 231.908Z" fill="#FFB8B8"/>
<path d="M40.315 251.626C36.5284 250.284 32.7419 248.939 28.9554 247.592C29.608 246.496 30.4392 245.518 31.4145 244.696C35.0197 241.685 39.9959 241.141 44.5731 240.125C49.1576 239.109 54.1338 237.027 55.8095 232.644C57.5504 228.087 55.026 223.167 53.5607 218.523C51.3965 212.01 51.6593 204.933 54.3007 198.598C57.0356 192.256 62.5682 187.55 69.2655 185.87C75.8956 184.397 83.3889 186.799 87.4657 192.227C92.9013 190.596 98.6988 193.28 100.972 198.482C102.021 200.871 101.859 203.619 100.537 205.868C99.1228 208.009 96.0979 209.105 93.8201 207.915L95.1403 204.562C91.0563 205.948 88.4014 213.335 88.9527 217.616C89.4967 221.89 91.9921 225.634 94.5238 229.125C97.0555 232.615 99.7538 236.141 100.842 240.314C102.409 246.315 100.291 252.874 96.3735 257.685C92.4564 262.496 86.9361 265.761 81.22 268.163C76.9411 269.963 72.4945 271.333 67.9453 272.256C68.7578 270.674 69.5629 269.092 70.3754 267.51L60.7349 273.344C58.8706 273.525 56.9918 273.634 55.1131 273.671C49.6436 273.765 44.0654 273.192 39.0601 271.008C34.0477 268.816 29.6445 264.847 27.831 259.688C27.2496 258.019 26.9744 256.259 27.0186 254.492C31.4507 253.535 35.8828 252.579 40.315 251.626Z" fill="#2F2E41"/>
<path d="M213.233 578.975H180.046L179.904 578.716C179.479 577.946 179.07 577.13 178.687 576.292C175.268 568.972 173.824 560.599 172.549 553.212L171.589 547.644C171.266 545.772 172.521 543.994 174.391 543.671C175.307 543.513 176.248 543.733 176.999 544.28C182.042 547.951 187.088 551.619 192.135 555.283C194.046 556.674 196.229 558.284 198.319 560.023C198.521 559.044 198.732 558.061 198.943 557.092C199.346 555.235 201.178 554.057 203.034 554.461C203.943 554.659 204.732 555.216 205.223 556.006L209.106 562.246C211.938 566.803 214.438 571.294 213.928 576.137C213.931 576.196 213.927 576.255 213.915 576.313C213.813 577.108 213.624 577.89 213.352 578.644L213.233 578.975Z" fill="#F0F0F0"/>
<path d="M334.542 579.692L19.1845 579.999C18.5269 579.996 17.9966 579.46 18 578.802C18.0034 578.15 18.5318 577.621 19.1845 577.618L334.542 577.311C335.2 577.314 335.73 577.85 335.726 578.507C335.723 579.16 335.195 579.688 334.542 579.692Z" fill="#CACACA"/>
<path d="M19.8854 17.2955C24.5559 17.2955 28.342 13.4238 28.342 8.64777C28.342 3.87174 24.5559 0 19.8854 0C15.215 0 11.4288 3.87174 11.4288 8.64777C11.4288 13.4238 15.215 17.2955 19.8854 17.2955Z" fill="#3F3D56"/>
<path d="M49.0992 17.2955C53.7696 17.2955 57.5558 13.4238 57.5558 8.64777C57.5558 3.87174 53.7696 0 49.0992 0C44.4287 0 40.6426 3.87174 40.6426 8.64777C40.6426 13.4238 44.4287 17.2955 49.0992 17.2955Z" fill="#3F3D56"/>
<path d="M78.313 17.2955C82.9835 17.2955 86.7697 13.4238 86.7697 8.64777C86.7697 3.87174 82.9835 0 78.313 0C73.6426 0 69.8564 3.87174 69.8564 8.64777C69.8564 13.4238 73.6426 17.2955 78.313 17.2955Z" fill="#3F3D56"/>
<path d="M111.624 15.4827C111.365 15.4827 111.105 15.382 110.91 15.1818L105.203 9.34696C104.823 8.95817 104.823 8.33687 105.203 7.94808L110.91 2.11374C111.297 1.71908 111.931 1.71273 112.324 2.09811C112.719 2.48446 112.725 3.11796 112.339 3.51261L107.317 8.64752L112.339 13.7829C112.725 14.1776 112.719 14.8111 112.324 15.1974C112.129 15.3879 111.877 15.4827 111.624 15.4827Z" fill="#3F3D56"/>
<path d="M121.213 15.4827C120.96 15.4827 120.708 15.3879 120.513 15.1974C120.118 14.8111 120.112 14.1781 120.498 13.7829L125.519 8.64752L120.498 3.51262C120.112 3.11796 120.118 2.48446 120.513 2.09811C120.908 1.71127 121.541 1.7186 121.928 2.11374L127.633 7.94808C128.013 8.33687 128.013 8.95817 127.633 9.34696L121.928 15.1818C121.732 15.3821 121.472 15.4827 121.213 15.4827Z" fill="#3F3D56"/>
<path d="M419.723 1.00122H409.113C407.903 1.00122 406.923 1.98151 406.923 3.19191V13.8152C406.923 15.0256 407.903 16.0059 409.113 16.0059H419.723C420.933 16.0059 421.923 15.0256 421.923 13.8152V3.19191C421.923 1.98151 420.933 1.00122 419.723 1.00122Z" fill="#3F3D56"/>
<path d="M393.723 1.00122H383.113C381.903 1.00122 380.923 1.98151 380.923 3.19191V13.8152C380.923 15.0256 381.903 16.0059 383.113 16.0059H393.723C394.933 16.0059 395.923 15.0256 395.923 13.8152V3.19191C395.923 1.98151 394.933 1.00122 393.723 1.00122Z" fill="#3F3D56"/>
<path d="M444.223 1.50134H433.613C432.403 1.50134 431.423 2.48163 431.423 3.69203V14.3153C431.423 15.5257 432.403 16.506 433.613 16.506H444.223C445.433 16.506 446.423 15.5257 446.423 14.3153V3.69203C446.423 2.48163 445.433 1.50134 444.223 1.50134Z" fill="#3F3D56"/>
<path d="M284.301 5.5426H199.491C198.011 5.5426 196.821 6.74299 196.821 8.21348C196.821 9.68397 198.011 10.8843 199.491 10.8843H284.301C285.771 10.8843 286.971 9.68391 286.971 8.21348C286.971 6.74305 285.771 5.5426 284.301 5.5426Z" fill="#3F3D56"/>
</g>
<defs>
<clipPath id="clip0_292_1816">
<rect width="469" height="580" fill="white"/>
</clipPath>
</defs>
</svg>
